<svg width="1080" height="1080" viewBox="0 0 1080 1080" fill="none" xmlns="http://www.w3.org/2000/svg">
<path d="M527.79 116.405C517.356 122.991 480.06 146.04 468.96 152.391C463.41 155.683 453.42 161.799 446.76 166.032C440.1 170.266 428.112 177.792 420.12 182.496C393.924 198.019 387.93 201.783 385.71 203.664C384.6 204.605 377.94 208.603 371.28 212.367C364.62 216.365 346.638 227.184 331.32 236.592C316.002 246 300.018 255.643 295.8 258.231C291.582 260.818 287.142 263.875 285.81 264.816C284.7 265.757 278.04 269.755 271.38 273.519C244.296 289.277 203.448 314.914 199.896 318.206C196.122 321.734 195.9 335.376 195.9 540C195.9 744.624 196.122 758.266 199.896 761.558C201.894 763.44 209.22 768.144 215.88 772.142C222.54 776.141 235.638 783.667 244.74 789.312C253.842 794.722 266.94 802.483 273.6 806.482C280.26 810.245 287.808 814.949 290.25 816.83C300.684 824.357 300.24 833.059 300.24 603.974C300.24 400.997 300.462 387.59 304.236 384.298C306.234 382.416 321.996 372.538 339.09 362.424C356.184 352.31 373.944 341.491 378.384 338.669C383.046 335.611 387.042 333.024 387.486 333.024C387.93 333.024 397.254 327.614 408.132 321.029C419.01 314.208 432.33 306.211 437.88 302.918C443.43 299.626 464.298 287.16 484.056 275.165C504.036 262.935 521.13 253.056 521.796 253.056C522.684 253.056 525.792 250.939 528.9 248.352C532.008 245.765 535.782 243.648 537.558 243.648C539.334 243.648 548.214 248.352 557.538 253.997C566.862 259.642 586.398 271.402 601.05 280.104C625.248 294.687 642.342 305.035 689.85 333.73C698.508 338.904 707.61 344.314 710.274 345.725C721.374 351.605 720.708 352.31 678.75 378.888C668.982 385.003 656.994 392.53 652.11 395.117C647.226 397.939 639.012 403.114 633.906 406.642C628.578 410.17 623.916 412.992 623.472 412.992C623.028 412.992 613.704 418.637 602.826 425.693C580.626 439.805 552.21 457.68 545.55 461.208C541.332 463.56 541.11 466.382 540.444 527.77C540.222 568.694 540.666 591.744 542.22 591.744C543.33 591.744 547.548 589.862 551.544 587.275C555.54 584.923 565.974 578.573 574.854 573.163C583.512 567.989 594.612 561.168 599.274 558.346C608.598 552.701 633.018 538.118 649.224 528.475C672.534 514.598 694.734 501.427 702.06 496.958C706.278 494.371 716.268 488.256 724.26 483.552C732.252 478.848 742.464 472.733 747.126 469.91C781.092 449.213 797.52 439.334 815.946 428.515L830.82 419.578V354.192V288.807L817.278 280.339C809.952 275.635 803.292 271.872 802.626 271.872C801.96 271.872 798.852 269.991 795.744 267.639C792.414 265.051 784.2 259.877 777.54 256.114C765.552 249.058 732.474 228.831 692.07 203.664C681.192 196.843 666.54 188.141 659.88 184.143C653.22 180.379 645.006 175.205 641.676 172.618C638.568 170.266 635.46 168.384 634.794 168.384C634.35 168.384 625.026 162.975 614.148 156.154C603.27 149.568 589.506 141.101 583.29 137.338C577.296 133.575 570.636 129.576 568.86 128.4C555.762 119.698 541.332 111.936 538.224 111.936C536.226 111.936 531.564 114.053 527.79 116.405Z" fill="white"/>
<path d="M450.09 374.419C440.322 380.299 425.448 389.237 416.79 394.176C383.268 413.227 373.056 419.578 368.838 423.106C364.842 426.869 364.62 432.984 364.62 644.194C364.62 814.478 365.286 862.224 367.506 865.046C369.948 868.104 383.712 877.042 413.46 894.682C419.01 897.739 426.558 902.208 430.11 904.56C433.884 906.912 441.21 911.381 446.76 914.674C452.31 917.731 474.288 931.138 495.822 944.309C517.356 957.245 536.448 968.064 538.224 968.064C540 968.064 548.658 963.83 557.538 958.656C579.294 945.72 601.494 932.314 612.15 925.728C617.034 922.67 627.468 916.32 635.46 911.616C643.452 906.912 653.886 900.562 658.77 897.504C663.654 894.446 674.31 887.861 682.746 882.922C690.96 877.982 704.28 869.986 712.716 865.046C720.93 860.107 731.586 853.522 736.47 850.464C741.354 847.406 751.788 841.056 759.78 836.352C767.772 831.648 780.204 823.886 787.53 819.418C794.856 814.949 805.956 808.128 811.95 804.6C825.048 796.838 848.358 782.726 860.79 775.435C865.674 772.378 873 767.909 876.996 765.322L884.1 760.618L883.656 656.894L882.99 553.171L871.668 546.115C852.576 533.885 818.832 511.776 815.058 508.954C811.95 506.837 802.182 512.246 760.002 538.824C731.808 556.699 708.72 572.222 708.72 573.163C708.72 574.104 715.38 578.808 723.816 583.747C732.03 588.686 742.242 594.566 746.46 597.154C750.678 599.741 758.226 604.21 763.11 606.797C767.994 609.619 772.656 612.677 773.544 614.088C774.432 615.264 775.32 633.139 775.32 653.366C775.32 689.352 775.098 690.528 770.436 693.586C764.664 697.349 651.222 769.085 641.01 775.2C637.458 777.552 613.482 792.84 587.952 809.069C562.422 825.298 540.666 838.704 539.556 838.704C536.448 838.704 523.128 830.707 498.93 814.478L476.73 799.661L475.62 582.336C474.732 391.354 474.066 364.776 471.18 364.306C469.404 364.07 459.858 368.539 450.09 374.419Z" fill="white"/>
</svg>
